<?xml version="1.0" ?>
<!DOCTYPE svg  PUBLIC '-//W3C//DTD SVG 1.1//EN'  'http://www.w3.org/Graphics/SVG/1.1/DTD/svg11.dtd'>
<!-- Uploaded to: SVG Repo, www.svgrepo.com, Generator: SVG Repo Mixer Tools -->
<svg fill="#000000" width="800px" height="800px" viewBox="0 0 512 512" enable-background="new 0 0 512 512" id="Layer_1" version="1.1" xml:space="preserve" xmlns="http://www.w3.org/2000/svg" xmlns:xlink="http://www.w3.org/1999/xlink">
<g>
<g>
<path d="M222.019,246.826h-0.333c-5.523,0-10-4.477-10-10s4.477-10,10-10h0.333c5.523,0,10,4.477,10,10    S227.542,246.826,222.019,246.826z"/>
</g>
<g>
<path d="M288.352,246.826h-0.333c-5.523,0-10-4.477-10-10s4.477-10,10-10h0.333c5.523,0,10,4.477,10,10    S293.875,246.826,288.352,246.826z"/>
</g>
<g>
<path d="M111.879,372.51H69.523c-5.523,0-10-4.477-10-10V196.035c0-5.523,4.477-10,10-10h42.355c5.523,0,10,4.477,10,10V362.51    C121.879,368.033,117.402,372.51,111.879,372.51z M79.523,352.51h22.355V206.035H79.523V352.51z"/>
</g>
<g>
<path d="M442.477,372.51h-42.358c-5.523,0-10-4.477-10-10V196.035c0-5.523,4.477-10,10-10h42.358c5.523,0,10,4.477,10,10V362.51    C452.477,368.033,448,372.51,442.477,372.51z M410.118,352.51h22.358V206.035h-22.358V352.51z"/>
</g>
<g>
<path d="M442.477,206.035H69.523c-5.523,0-10-4.477-10-10V149.49c0-5.523,4.477-10,10-10h372.953c5.523,0,10,4.477,10,10v46.545    C452.477,201.558,448,206.035,442.477,206.035z M79.523,186.035h352.953V159.49H79.523V186.035z"/>
</g>
<g>
<path d="M400.118,279.023H111.879c-5.523,0-10-4.477-10-10v-71.098c0-5.523,4.477-10,10-10h288.239c5.523,0,10,4.477,10,10v71.098    C410.118,274.546,405.641,279.023,400.118,279.023z M121.879,259.023h268.239v-51.098H121.879V259.023z"/>
</g>
<g>
<path d="M400.118,279.023h-144.12c-5.523,0-10-4.477-10-10v-71.098c0-5.523,4.477-10,10-10h144.12c5.523,0,10,4.477,10,10v71.098    C410.118,274.546,405.641,279.023,400.118,279.023z M265.998,259.023h124.12v-51.098h-124.12V259.023z"/>
</g>
</g>
</svg>